<?xml version="1.0" encoding="UTF-8" standalone="no"?>
<svg
   xmlns:dc="http://purl.org/dc/elements/1.1/"
   xmlns:cc="http://creativecommons.org/ns#"
   xmlns:rdf="http://www.w3.org/1999/02/22-rdf-syntax-ns#"
   xmlns:svg="http://www.w3.org/2000/svg"
   xmlns="http://www.w3.org/2000/svg"
   version="1.1"
   id="svg2"
   viewBox="0 0 1080 1080"
   height="12in"
   width="12in">
  <defs
     id="defs4" />
  <metadata
     id="metadata7">
    <rdf:RDF>
      <cc:Work
         rdf:about="">
        <dc:format>image/svg+xml</dc:format>
        <dc:type
           rdf:resource="http://purl.org/dc/dcmitype/StillImage" />
        <dc:title></dc:title>
      </cc:Work>
    </rdf:RDF>
  </metadata>
  <g
     transform="translate(0,27.63782)"
     id="layer1">
    <g
       transform="matrix(0.72254444,0,0,0.72254444,2906.0967,3458.0965)"
       id="layer1-9">
      <g
         transform="matrix(0.78552379,0,0,0.78552379,-2414.0471,-4243.1355)"
         id="layer1-2" />
      <path
         d="m -3260.7019,-3753.9054 c -41.8052,-5.7601 -58.7775,-8.8392 -87.5167,-15.8772 -32.6974,-8.0073 -84.5302,-24.8609 -88.419,-28.7497 -2.9333,-2.9333 36.4687,-35.7674 67.1975,-55.9962 37.0018,-24.3583 81.008,-44.0678 115.3754,-51.6743 41.0816,-10.4701 85.6958,-11.5288 127.1562,-2.6772 51.1011,10.9098 101.6129,40.4039 150.076,87.6302 l 22.3623,21.7916 -10.4153,5.2952 c -23.1807,11.7851 -91.4307,29.9609 -138.8156,36.9683 -32.6146,4.823 -130.9212,6.8826 -157.0008,3.2893 z"
         id="path2999"
         style="fill:#af9b3d" />
      <path
         d="m -3379.4078,-4051.5828 c -27.9395,-13.112 -57.0802,-66.785 -57.0802,-105.1335 0,-41.1828 31.9773,-90.0826 73.5608,-112.4891 l 10.0683,-5.4252 -12.8167,-0.8176 c -25.6411,-1.6357 -69.0137,27.9322 -92.1,62.7862 -6.0548,9.1412 -8.1747,10.8018 -9.4722,7.4206 -0.9194,-2.3959 -0.9226,-7.3402 -0.01,-10.9874 1.4086,-5.6128 0.7388,-6.6313 -4.361,-6.6313 -7.7496,0 -25.0582,16.0588 -36.4521,33.82 -9.9527,15.5145 -14.5488,15.2791 -17.5841,-0.9006 -0.9313,-4.964 -2.6682,-9.0254 -3.8599,-9.0254 -3.9554,0 -13.4652,14.2625 -22.9836,34.4699 l -9.3997,19.9554 -5.3634,-11.895 c -13.5645,-30.084 -1.3797,-72.6743 30.8961,-107.9924 13.0265,-14.2544 20.064,-19.2269 42.4782,-30.014 42.4118,-20.4111 82.8636,-27.8051 116.941,-21.3752 9.7273,1.8355 18.2925,2.7307 19.0337,1.9894 2.9451,-2.945 -17.9057,-12.8666 -29.9435,-14.2482 -13.5998,-1.561 -55.3638,4.7269 -73.5937,11.08 -14.6781,5.1153 -15.7012,4.9097 -13.7743,-2.7676 1.4406,-5.7398 0.7779,-6.6372 -4.9012,-6.6372 -3.6119,0 -14.6856,3.0651 -24.6084,6.8114 -28.5829,10.7913 -28.2029,10.7302 -26.1293,4.1969 2.2303,-7.0271 -0.2827,-7.1793 -25.1522,-1.5228 -10.0974,2.2966 -22.7191,7.1345 -28.0479,10.7508 -5.329,3.6163 -10.3377,5.9264 -11.1306,5.1335 -2.6382,-2.6382 4.4996,-21.4735 13.0022,-34.3099 4.6156,-6.9683 16.6523,-19.6228 26.7483,-28.1211 53.8691,-45.3444 105.3612,-51.3685 164.6647,-19.2645 32.4675,17.5764 44.5326,23.6034 45.4378,22.6982 0.5342,-0.5342 -0.7043,-7.2242 -2.752,-14.8668 -11.5824,-43.2276 22.4946,-102.1843 74.2098,-128.3903 39.3779,-19.9543 112.924,-22.4349 139.333,-4.6996 l 7.3541,4.9388 -18.1459,1.8411 c -24.9257,2.529 -28.1788,3.9542 -20.8085,9.1166 8.7029,6.0957 7.17,8.2647 -9.205,13.025 -8.2353,2.3941 -17.8961,6.268 -21.4685,8.6087 l -6.4952,4.2558 8.8577,2.863 c 4.8718,1.5747 8.8578,3.9392 8.8578,5.2545 0,1.3153 -6.9146,4.9715 -15.3657,8.125 -8.4511,3.1535 -18.5789,8.9469 -22.5062,12.8742 -7.0161,7.0161 -7.0376,7.1406 -1.2275,7.1406 8.7753,0 7.1965,4.3853 -4.3235,12.0088 -17.3464,11.4793 -48.171,52.8776 -48.171,64.695 0,2.1443 4.3098,-1.1362 9.5774,-7.2902 16.5746,-19.3638 39.7976,-26.9906 81.8403,-26.8778 50.7241,0.1361 99.0755,19.1569 129.508,50.9468 9.4247,9.845 21.9658,25.9892 20.1867,25.9863 -0.4645,-5e-4 -7.0538,-2.3614 -14.6431,-5.2459 -7.5892,-2.8845 -18.9388,-5.572 -25.2214,-5.9722 -11.0437,-0.7034 -11.3946,-0.4851 -10.5692,6.5734 0.9913,8.4776 -0.3583,8.7195 -19.0294,3.4097 -15.376,-4.3726 -45.2603,-7.1757 -53.8603,-5.052 -5.0496,1.247 -5.3505,2.2284 -2.7748,9.052 1.5888,4.2093 2.0091,8.533 0.9339,9.6081 -1.0752,1.0752 -10.3023,0.5234 -20.5048,-1.2261 -41.0129,-7.0329 -75.743,-2.8189 -105.8332,12.8414 -18.9791,9.8775 -20.9357,12.0707 -33.0747,37.0755 -14.5643,30.0008 -18.0381,59.4817 -10.7145,90.9302 2.2365,9.6039 -1.6944,9.3637 -13.2836,-0.8118 l -9.2398,-8.1126 -4.3402,8.393 c -4.8919,9.4598 -6.1954,31.9517 -2.9762,51.35 l 2.1552,12.9864 -8.1837,-1.6367 c -8.0341,-1.6069 -8.1836,-1.4456 -8.1836,8.8264 0,10.5998 5.9143,26.717 12.9173,35.201 3.4684,4.202 3.2247,4.6361 -2.55,4.5422 -3.5118,-0.057 -9.9691,-1.786 -14.3497,-3.8418 z"
         id="path2995"
         style="fill:#20de10" />
      <path
         d="m -3248.8353,-3881.7873 5.9527,-29.1633 c 22.718,-111.3003 8.3648,-216.8338 -39.9667,-293.8585 -12.3365,-19.6605 -35.0215,-47.2549 -38.8475,-47.2549 43.2779,-71.3054 102.0767,-90.8726 160.2382,137.0901 16.9775,56.4547 12.1677,142.983 19.5307,200.6188 19.1515,75.7837 -128.7472,47.6561 -106.9074,32.5678 z"
         id="path3006"
         style="fill:#6c5353" />
    </g>
  </g>
</svg>
